<?xml version="1.0" encoding="utf-8"?>
<!-- Generator: Adobe Illustrator 25.4.1, SVG Export Plug-In . SVG Version: 6.00 Build 0)  -->
<svg version="1.1" id="Layer_1" xmlns="http://www.w3.org/2000/svg" xmlns:xlink="http://www.w3.org/1999/xlink" x="0px" y="0px"
	 viewBox="0 0 272 350.7" style="enable-background:new 0 0 272 350.7;" xml:space="preserve">
<style type="text/css">
	.st0{fill:#F9ECD3;}
	.st1{fill:#5D54A4;}
</style>
<path class="st0" d="M182,178.5c6.6,0,12.8,0,19.1,0c14.1,0,28.2-0.1,42.2,0c6.4,0.1,11.2,3.1,13.8,9c2.6,5.8,1.6,11.4-2.7,16
	c-2.1,2.2-5.2,3.6-7.8,5.3c7.1,2,11.8,6.9,11.7,14.8c-0.1,7.8-4.6,12.6-11.5,14.5c2.6,1.9,5.8,3.5,8,5.9c4.1,4.5,4.7,10,2.2,15.6
	c-2.6,5.7-7.3,8.5-13.4,8.8c-3.9,0.2-7.8,0-11.8,0.2c3.8,1.3,7.2,3.3,9.3,6.9c2.9,4.9,3.2,9.9,0.6,15c-2.8,5.3-7.5,8-13.4,8
	c-14.1,0.1-28.2,0-42.2,0c-7.7,0-15.5-0.2-23.2,0c-11.2,0.3-22-1.6-32.5-5.3c-6.6-2.3-13.2-4.5-19.9-6.6c-1.3-0.4-1.9-0.9-1.9-2.4
	c0-35,0-70,0.1-105c0-0.7,0.7-2,1.3-2.1c15.1-4.1,24.7-14.5,32-27.6c6.7-12,10.8-25,14.2-38.2c1-4,2.6-7.7,7.2-8.1
	c3.6-0.3,7.4-0.2,10.9,0.7c10.6,2.8,16.6,11.3,17,22.2c0.6,17.1-2.7,33.6-8.2,49.7C182.6,176.6,182.4,177.4,182,178.5z"/>
<g>
	<path class="st1" d="M33.5,238.5c0-22.1,0-44.2,0-66.2c0-5.9,2.9-8.8,8.7-8.8c9.2,0,18.5,0,27.7,0c13.8,0,23.5,9.7,23.5,23.6
		c0,34.2,0,68.5,0,102.7c0,14-9.7,23.6-23.7,23.7c-9.2,0-18.5,0-27.7,0c-5.5,0-8.5-3-8.5-8.5C33.5,282.9,33.5,260.7,33.5,238.5z
		 M78.5,276c0-4-3.4-7.5-7.4-7.5c-4,0-7.5,3.3-7.6,7.4c-0.1,4.1,3.4,7.7,7.6,7.6C75.1,283.5,78.5,280,78.5,276z"/>
	<path class="st1" d="M176,72.8c0,2.6,0.1,5.2,0,7.7c-0.1,4.3-3.3,7.5-7.4,7.5c-4.1,0-7.4-3.1-7.5-7.4c-0.1-5.2-0.1-10.5,0-15.7
		c0.1-4.3,3.4-7.4,7.5-7.3c4,0,7.2,3.1,7.4,7.3C176.1,67.5,176,70.1,176,72.8z"/>
	<path class="st1" d="M113,85.4c0.4-3.2,1.8-5.5,4.5-6.8c2.6-1.2,5.4-1.3,7.5,0.6c4.3,4,8.6,8.2,12.5,12.6c2.4,2.7,1.8,6.7-0.8,9.3
		c-2.6,2.6-6.8,3.3-9.5,0.8c-4.3-3.9-8.4-8.1-12.4-12.3C113.8,88.6,113.6,86.8,113,85.4z"/>
	<path class="st1" d="M216.1,77.5c3.2,0.4,5.5,1.8,6.8,4.5c1.2,2.6,1.3,5.4-0.6,7.5c-4,4.3-8.2,8.6-12.6,12.5
		c-2.7,2.4-6.7,1.8-9.3-0.8c-2.6-2.6-3.3-6.8-0.8-9.5c3.9-4.3,8.1-8.4,12.3-12.4C212.9,78.3,214.7,78.1,216.1,77.5z"/>
</g>
</svg>
