<?xml version="1.0" encoding="utf-8"?>
<!-- Generator: Adobe Illustrator 25.4.1, SVG Export Plug-In . SVG Version: 6.00 Build 0)  -->
<svg version="1.1" id="Layer_1" xmlns="http://www.w3.org/2000/svg" xmlns:xlink="http://www.w3.org/1999/xlink" x="0px" y="0px"
	 viewBox="0 0 272 350.7" style="enable-background:new 0 0 272 350.7;" xml:space="preserve">
<style type="text/css">
	.st0{fill:#EC5E66;}
	.st1{fill:#CA334F;}
</style>
<path class="st0" d="M154.5,238.2c-0.2,0.1-0.4,0.3-0.6,0.4C154.1,238.5,154.3,238.3,154.5,238.2z"/>
<g>
	<path class="st1" d="M136,273.3c-35.7,0-71.4,0-107.1,0c-4.7,0-7.2-1.6-8.1-5.2c-0.2-0.8-0.2-1.6-0.2-2.5c0-59.1,0-118.3,0-177.4
		c0-4.9,2.7-7.6,7.7-7.6c71.8,0,143.6,0,215.3,0c5.3,0,7.9,2.6,7.9,7.9c0,58.9,0,117.8,0,176.7c0,5.6-2.5,8-8.1,8c-32,0-64,0-96.1,0
		C143.5,273.3,139.7,273.3,136,273.3z M107.4,176.9c0,7.1,0,14.1,0,21.2c0,1.5,0.1,3,0.6,4.4c2,5.7,8.2,7.6,14,4.3
		c12.7-7.3,25.4-14.7,38.1-22.2c6.1-3.6,6.1-11.5,0-15.1c-12.7-7.5-25.4-14.8-38.1-22.3c-6.8-4.1-15,0.2-14.7,8.5
		C107.6,162.7,107.4,169.8,107.4,176.9z M57,105.8c0-4,0-7.8,0-11.5c-7.7,0-15.2,0-22.7,0c0,3.9,0,7.7,0,11.5
		C41.9,105.8,49.3,105.8,57,105.8z M70.8,94.2c0,4,0,7.7,0,11.5c7.6,0,15,0,22.5,0c0-3.9,0-7.7,0-11.5
		C85.7,94.2,78.3,94.2,70.8,94.2z M202,94.3c-7.7,0-15.1,0-22.6,0c0,3.9,0,7.6,0,11.4c7.6,0,15,0,22.6,0
		C202,101.9,202,98.2,202,94.3z M34.2,248.1c0,4,0,7.8,0,11.6c7.7,0,15.1,0,22.7,0c0-3.9,0-7.7,0-11.6
		C49.3,248.1,41.9,248.1,34.2,248.1z M93.3,259.6c0-3.9,0-7.7,0-11.5c-7.6,0-15.1,0-22.5,0c0,3.9,0,7.6,0,11.5
		C78.3,259.6,85.6,259.6,93.3,259.6z M202,248c-7.3,0-14.4,0-21.5,0c-0.4,0-1,0.7-1,1c-0.1,3.5,0,7,0,10.6c7.7,0,15.1,0,22.6,0
		C202,255.7,202,252,202,248z M107.1,105.7c7.6,0,15,0,22.4,0c0-3.9,0-7.7,0-11.5c-7.6,0-14.9,0-22.4,0
		C107.1,98.1,107.1,101.9,107.1,105.7z M165.7,94.3c-7.6,0-15,0-22.4,0c0,3.9,0,7.7,0,11.5c7.5,0,14.9,0,22.4,0
		C165.7,101.9,165.7,98.1,165.7,94.3z M107.1,248.1c0,3.9,0,7.7,0,11.5c7.5,0,14.9,0,22.4,0c0-3.9,0-7.7,0-11.5
		C122,248.1,114.6,248.1,107.1,248.1z M143.3,259.6c7.6,0,15,0,22.4,0c0-3.9,0-7.6,0-11.4c-7.5,0-14.9,0-22.4,0
		C143.3,252,143.3,255.7,143.3,259.6z M215.8,94.3c0,3.9,0,7.7,0,11.5c7.4,0,14.7,0,22,0c0-3.9,0-7.7,0-11.5
		C230.4,94.3,223.1,94.3,215.8,94.3z M237.8,248.1c-7.4,0-14.6,0-22,0c0,3.9,0,7.7,0,11.5c7.4,0,14.6,0,22,0
		C237.8,255.8,237.8,252.1,237.8,248.1z"/>
</g>
</svg>
