<svg height="459.37952" viewBox="0 0 889.07556 459.37952" width="889.07556" xmlns="http://www.w3.org/2000/svg"><ellipse cx="444.53778" cy="398.16856" fill="#e6e6e6" rx="444.53778" ry="12.43462"/><g transform="translate(-155.46222 -220.31024)"><path d="m836.90729 483.74151c-.56135.0077-1.12265.0154-1.69165.0154s-1.1303-.0077-1.69164-.0154c-29.75741-.67665-51.32574-19.26925-45.83561-38.77687l13.387-47.58878 3.38328-12.04134 59.97615 1.02263 3.6447 11.77994 14.34816 46.36621c6.07445 19.61523-15.49389 38.56156-45.52039 39.23821z" fill="#3f3d56"/><path d="m868.07949 398.13709a66.201 66.201 0 0 1 -67.00413-.76123l3.38328-12.04134 59.97615 1.02263z" opacity=".2"/><g fill="#3f3d56"><path d="m865.54813 446.54371c2.59087-9.656 11.10609-23.5853 34.98657-40.37992 41.64786-29.29427 16.80312-51.25925 15.72654-52.1796-2.25846-1.93041-1.92491-4.09793.77549-4.83852a11.22377 11.22377 0 0 1 9.03426 2.10278c1.34843 1.11541 32.45928 27.68293-14.53706 60.73417-42.29508 29.74951-33.30237 49.16914-33.1992 49.35545 1.13341 2.077-.684 3.73882-4.063 3.71644s-7.03927-1.72268-8.17623-3.7975c-.2391-.43894-2.9607-5.72418-.54737-14.7133z"/><path d="m807.53434 490.67723a6.92019 6.92019 0 0 1 -6.92032-6.92032v-29.98808a6.92032 6.92032 0 0 1 13.84065 0v29.98808a6.92019 6.92019 0 0 1 -6.92033 6.92032z"/><path d="m813.602 419.48415a6.92019 6.92019 0 0 1 -9.17934 3.39434l-27.243-12.53415a6.92033 6.92033 0 0 1 5.785-12.57368l27.243 12.53415a6.92019 6.92019 0 0 1 3.39434 9.17934z"/><path d="m856.82926 419.48415a6.92019 6.92019 0 0 0 9.17934 3.39434l27.243-12.53415a6.92032 6.92032 0 0 0 -5.785-12.57368l-27.243 12.53415a6.9202 6.9202 0 0 0 -3.39434 9.17934z"/><path d="m862.89684 490.67723a6.92018 6.92018 0 0 0 6.92032-6.92032v-29.98808a6.92032 6.92032 0 1 0 -13.84064 0v29.98808a6.92018 6.92018 0 0 0 6.92032 6.92032z"/><path d="m891.81774 296.5349a6.80558 6.80558 0 0 0 1.3735-5.40838l-3.76639-22.157-3.76639-22.157a6.913 6.913 0 0 0 -11.22615-4.16441l-17.30531 14.34029-10.42587 8.63951a65.69368 65.69368 0 0 0 -21.04716-.31735l-10.04291-8.32216-17.30532-14.34028a6.913 6.913 0 0 0 -11.22614 4.16441l-3.76639 22.157-3.76639 22.157a6.8438 6.8438 0 0 0 .30144 3.47373 66.11762 66.11762 0 1 0 111.96948 1.93465z"/></g><g fill="#e6e6e6"><path d="m796.57153 251.7278a3.447 3.447 0 0 0 -1.20182.21814 3.38791 3.38791 0 0 0 -2.18438 2.6353l-4.56733 26.86957a3.4226 3.4226 0 0 0 4.56474 3.7823l25.55323-9.47941a3.42226 3.42226 0 0 0 .99345-5.84352l-.00038-.00076-20.98549-17.38979a3.39218 3.39218 0 0 0 -2.17202-.79183z"/><path d="m876.16653 251.7278a3.39218 3.39218 0 0 0 -2.172.79183l-20.98587 17.39055a3.42226 3.42226 0 0 0 .99344 5.84352l25.55324 9.47941a3.4226 3.4226 0 0 0 4.56474-3.7823l-4.56737-26.86957a3.38788 3.38788 0 0 0 -2.18437-2.6353 3.447 3.447 0 0 0 -1.20181-.21814z"/></g></g><circle cx="679.75342" cy="119.65771" fill="#e6e6e6" r="9.2271"/><ellipse cx="679.75342" cy="115.04416" fill="#3f3d56" rx="6.1514" ry="2.30677"/><path d="m675.13987 125.04018h8.45813a0 0 0 0 1 0 0v10.38049a4.22908 4.22908 0 0 1 -4.22908 4.22908 4.22908 4.22908 0 0 1 -4.22908-4.22908v-10.38049a0 0 0 0 1 0 0z" fill="#ff6584"/><path d="m835.729 240.68976c-.4435.91976-.87414 1.84948-1.27916 2.7982a65.81817 65.81817 0 0 0 -4.65081 35.34384c.86574-1.25608 1.77556-2.56471 2.701-3.88776a65.775 65.775 0 0 1 3.22897-34.25428z" fill="#3f3d56" transform="translate(-155.46222 -220.31024)"/><path d="m842.64935 249.14794c-.4435.91976-.87415 1.84947-1.27916 2.79819a65.81818 65.81818 0 0 0 -4.65082 35.34387c.86575-1.25607 1.77556-2.56471 2.70095-3.88775a65.775 65.775 0 0 1 3.22903-34.25431z" fill="#3f3d56" transform="translate(-155.46222 -220.31024)"/><path d="m863.98522 415.199-.97489-12.39806-.97489-12.39809a3.82528 3.82528 0 0 0 -5.98-2.8528l-10.24962 7.04331-7.48458 5.14325a5.09542 5.09542 0 0 0 -7.74914 0l-7.48459-5.14325-10.24957-7.04336a3.82528 3.82528 0 0 0 -5.98 2.8528l-.97489 12.39809-.97489 12.39806a3.82528 3.82528 0 0 0 5.4606 3.75238l11.22448-5.35474 9.22263-4.39977a5.10117 5.10117 0 0 0 7.26159 0l9.22264 4.39977 11.22448 5.35474a3.82528 3.82528 0 0 0 5.46064-3.75233z" fill="#6c63ff" transform="translate(-155.46222 -220.31024)"/><circle cx="667.45062" cy="109.66168" fill="#e6e6e6" r="2.30677"/><circle cx="692.05622" cy="109.66168" fill="#e6e6e6" r="2.30677"/><g transform="translate(-155.46222 -220.31024)"><path d="m388.8876 463.362c.56134.0077 1.12264.01539 1.69164.01539s1.1303-.00769 1.69164-.01539c29.75741-.67666 51.32574-19.26926 45.83561-38.77688l-13.387-47.58877-3.38325-12.04135-59.97615 1.02264-3.64469 11.77994-14.34817 46.36621c-6.07448 19.61521 15.49386 38.56154 45.52037 39.23821z" fill="#3f3d56"/><path d="m357.7154 377.75757a66.201 66.201 0 0 0 67.00413-.76123l-3.38329-12.04134-59.97615 1.02264z" opacity=".2"/><g fill="#3f3d56"><path d="m352.962 420.52381c-6.47349-7.6187-20.13012-16.56472-48.90033-21.5257-50.17744-8.65585-37.1209-39.13943-36.54168-40.43193 1.21524-2.71115-.01371-4.52748-2.77131-4.04135a11.22369 11.22369 0 0 0 -7.26561 5.7663c-.74147 1.58513-17.492 38.90987 39.12707 48.67275 50.95721 8.79036 51.139 30.19031 51.12548 30.40285-.13567 2.36221 2.21806 3.08656 5.26252 1.62046s5.62513-4.5691 5.76494-6.93088c.02829-.49904.2266-6.44055-5.80108-13.5325z"/><path d="m418.26054 470.29771a6.92018 6.92018 0 0 0 6.92032-6.92033v-29.98807a6.92033 6.92033 0 0 0 -13.84065 0v29.98807a6.92019 6.92019 0 0 0 6.92033 6.92033z"/><path d="m412.19286 399.10463a6.92019 6.92019 0 0 0 9.17934 3.39434l27.243-12.53415a6.92033 6.92033 0 1 0 -5.785-12.57368l-27.243 12.53415a6.92019 6.92019 0 0 0 -3.39434 9.17934z"/><path d="m368.96562 399.10463a6.92019 6.92019 0 0 1 -9.17934 3.39434l-27.243-12.53415a6.92033 6.92033 0 1 1 5.785-12.57368l27.243 12.53415a6.92019 6.92019 0 0 1 3.39434 9.17934z"/><path d="m362.898 470.29771a6.92018 6.92018 0 0 1 -6.92032-6.92033v-29.98807a6.92033 6.92033 0 0 1 13.84065 0v29.98807a6.92019 6.92019 0 0 1 -6.92033 6.92033z"/><path d="m445.94662 274.22073a6.8438 6.8438 0 0 0 .30144-3.47373l-3.76639-22.157-3.76639-22.157a6.913 6.913 0 0 0 -11.22614-4.16442l-17.30532 14.34029-10.04291 8.32213a65.69368 65.69368 0 0 0 -21.04716.31735l-10.42587-8.63951-17.30531-14.34029a6.913 6.913 0 0 0 -11.22615 4.16442l-3.76642 22.15703-3.76639 22.157a6.80563 6.80563 0 0 0 1.3735 5.40838 66.13684 66.13684 0 1 0 111.96948-1.93465z"/></g><path d="m427.05136 232.14011-20.98549 17.38979-.00038.00075a3.42226 3.42226 0 0 0 .99345 5.84353l25.55324 9.4794a3.4226 3.4226 0 0 0 4.56474-3.7823l-4.56737-26.86957a3.38792 3.38792 0 0 0 -2.18438-2.63529 3.44677 3.44677 0 0 0 -1.20182-.21814 3.3922 3.3922 0 0 0 -2.17199.79183z" fill="#e6e6e6"/><path d="m348.42654 231.56642a3.38788 3.38788 0 0 0 -2.18438 2.63529l-4.56737 26.86957a3.4226 3.4226 0 0 0 4.56474 3.7823l25.55324-9.4794a3.42227 3.42227 0 0 0 .99344-5.84353l-20.98587-17.39054a3.39218 3.39218 0 0 0 -2.172-.79183 3.44672 3.44672 0 0 0 -1.2018.21814z" fill="#e6e6e6"/></g><circle cx="235.11702" cy="99.27819" fill="#e6e6e6" r="9.2271"/><ellipse cx="235.11702" cy="94.66464" fill="#3f3d56" rx="6.1514" ry="2.30677"/><path d="m390.9637 324.9709a4.22908 4.22908 0 0 1 4.22909 4.2291v10.38049a0 0 0 0 1 0 0h-8.45817a0 0 0 0 1 0 0v-10.38049a4.22908 4.22908 0 0 1 4.22908-4.2291z" fill="#ff6584" transform="matrix(-1 0 0 -1 626.46519 444.24113)"/><path d="m390.06586 220.31024c.4435.91976.87414 1.84947 1.27916 2.79819a65.81819 65.81819 0 0 1 4.65081 35.34385c-.86574-1.25608-1.77555-2.56471-2.701-3.88776a65.775 65.775 0 0 0 -3.22897-34.25428z" fill="#3f3d56" transform="translate(-155.46222 -220.31024)"/><path d="m383.14553 228.76841c.44351.91977.87415 1.84948 1.27917 2.7982a65.81827 65.81827 0 0 1 4.65081 35.34384c-.86574-1.25607-1.77556-2.56471-2.701-3.88776a65.77493 65.77493 0 0 0 -3.22898-34.25428z" fill="#3f3d56" transform="translate(-155.46222 -220.31024)"/><path d="m361.80966 260.25756.97489-12.39806.97489-12.39808a3.82528 3.82528 0 0 1 5.98-2.85281l10.24962 7.04332 7.48459 5.14325a5.09539 5.09539 0 0 1 7.74913 0l7.48459-5.14325 10.24962-7.04332a3.82528 3.82528 0 0 1 5.98 2.85281l.97489 12.39808.97489 12.39806a3.82528 3.82528 0 0 1 -5.46059 3.75239l-11.22458-5.35475-9.22264-4.39977a5.10114 5.10114 0 0 1 -7.26159 0l-9.22264 4.39977-11.22448 5.3548a3.82528 3.82528 0 0 1 -5.46059-3.75244z" fill="#6c63ff" transform="translate(-155.46222 -220.31024)"/><path d="m400.57526 309.5924c0 1.274 1.03278 0 2.30678 0s2.30677 1.274 2.30677 0a2.30678 2.30678 0 0 0 -4.61355 0z" fill="#e6e6e6" transform="translate(-155.46222 -220.31024)"/><path d="m380.58322 309.5924c0 1.274-1.03278 0-2.30678 0s-2.30677 1.274-2.30677 0a2.30678 2.30678 0 0 1 4.61355 0z" fill="#e6e6e6" transform="translate(-155.46222 -220.31024)"/><path d="m481.05 263.451v-14.663h-73.314v.917 13.746 118.219 14.663h14.663 58.651v-14.663h-58.651v-118.219z" fill="#3f3d56"/><path d="m672.25275 469.09857v147.54443h73.314v-147.54443zm58.65118 132.8816h-43.9884v-118.21875h43.9884z" fill="#6c63ff" transform="translate(-155.46222 -220.31024)"/><path d="m313.344 381.67v-131.965h-14.663v131.965 14.663h14.663 58.651v-14.663z" fill="#6c63ff"/><path d="m265.69 263.451v-14.663h-73.314v.917 13.746 51.32 14.663 52.236 14.663h14.663 58.651v-14.663h-58.651v-52.236h58.651v-14.663h-58.651v-51.32z" fill="#3f3d56"/><path d="m839.372 263.451v-14.663h-73.314v.917 13.746 51.32 14.663 52.236 14.663h14.663 58.651v-14.663h-58.651v-52.236h58.651v-14.663h-58.651v-51.32z" fill="#6c63ff"/><path d="m142.889 249.705v121.185l-38.661-38.66-.088.089-.082-.082-39.523 39.523v-122.513h-14.663v146.628h14.663v-3.379l39.612-39.612 38.742 38.743v4.706h14.663v-146.628z" fill="#3f3d56"/><path d="m717.488 249.705v3.378l-39.612 39.612-38.743-38.742v-4.706h-14.663v146.628h14.663v-121.186l38.661 38.661.089-.089.081.081 39.524-39.523v122.514h14.662v-146.628z" fill="#3f3d56"/><g fill="#6c63ff"><circle cx="335.07556" cy="150.37952" r="9"/><circle cx="113.07556" cy="250.37952" r="9"/><circle cx="291.07556" cy="450.37952" r="9"/><circle cx="517.07556" cy="177.37952" r="9"/><circle cx="782.07556" cy="442.37952" r="9"/><circle cx="791.07556" cy="206.37952" r="9"/><circle cx="677.07556" cy="368.37952" r="9"/></g></svg>